<svg xmlns="http://www.w3.org/2000/svg" xmlns:xlink="http://www.w3.org/1999/xlink" width="60" zoomAndPan="magnify" viewBox="0 0 45 30.000001" height="40" preserveAspectRatio="xMidYMid meet" version="1.0"><defs><g/><clipPath id="4bc8dd6473"><path d="M 36 14.738281 L 44.273438 14.738281 L 44.273438 17 L 36 17 Z M 36 14.738281 " clip-rule="nonzero"/></clipPath><clipPath id="1cd35f4ae1"><path d="M 36 16.675781 C 36 16.488281 36.191406 16.339844 36.40625 16.363281 L 42.875 16.992188 C 43.707031 17.070312 44.410156 16.46875 44.320312 15.753906 C 44.226562 15.007812 43.332031 14.546875 42.527344 14.832031 L 36.503906 16.96875 C 36.265625 17.054688 36 16.902344 36 16.675781 Z M 36 16.675781 " clip-rule="nonzero"/></clipPath><linearGradient x1="805.756155" gradientTransform="matrix(0.0367663, 0, 0, 0.0317223, 35.999894, 14.737004)" y1="188.164155" x2="763.259163" gradientUnits="userSpaceOnUse" y2="319.316712" id="1e0ab2131f"><stop stop-opacity="1" stop-color="rgb(79.356384%, 31.777954%, 49.784851%)" offset="0"/><stop stop-opacity="1" stop-color="rgb(79.325867%, 31.697083%, 49.954224%)" offset="0.0078125"/><stop stop-opacity="1" stop-color="rgb(79.267883%, 31.536865%, 50.294495%)" offset="0.015625"/><stop stop-opacity="1" stop-color="rgb(79.208374%, 31.378174%, 50.634766%)" offset="0.0234375"/><stop stop-opacity="1" stop-color="rgb(79.148865%, 31.217957%, 50.975037%)" offset="0.03125"/><stop stop-opacity="1" stop-color="rgb(79.089355%, 31.057739%, 51.315308%)" offset="0.0390625"/><stop stop-opacity="1" stop-color="rgb(79.029846%, 30.899048%, 51.655579%)" offset="0.046875"/><stop stop-opacity="1" stop-color="rgb(78.970337%, 30.738831%, 51.99585%)" offset="0.0546875"/><stop stop-opacity="1" stop-color="rgb(78.910828%, 30.578613%, 52.336121%)" offset="0.0625"/><stop stop-opacity="1" stop-color="rgb(78.851318%, 30.419922%, 52.676392%)" offset="0.0703125"/><stop stop-opacity="1" stop-color="rgb(78.793335%, 30.259705%, 53.016663%)" offset="0.078125"/><stop stop-opacity="1" stop-color="rgb(78.733826%, 30.099487%, 53.356934%)" offset="0.0859375"/><stop stop-opacity="1" stop-color="rgb(78.674316%, 29.940796%, 53.697205%)" offset="0.09375"/><stop stop-opacity="1" stop-color="rgb(78.614807%, 29.780579%, 54.037476%)" offset="0.101562"/><stop stop-opacity="1" stop-color="rgb(78.555298%, 29.620361%, 54.377747%)" offset="0.109375"/><stop stop-opacity="1" stop-color="rgb(78.495789%, 29.460144%, 54.716492%)" offset="0.117188"/><stop stop-opacity="1" stop-color="rgb(78.436279%, 29.301453%, 55.056763%)" offset="0.125"/><stop stop-opacity="1" stop-color="rgb(78.37677%, 29.141235%, 55.397034%)" offset="0.132813"/><stop stop-opacity="1" stop-color="rgb(78.317261%, 28.981018%, 55.737305%)" offset="0.140625"/><stop stop-opacity="1" stop-color="rgb(78.259277%, 28.822327%, 56.077576%)" offset="0.148438"/><stop stop-opacity="1" stop-color="rgb(78.199768%, 28.662109%, 56.417847%)" offset="0.15625"/><stop stop-opacity="1" stop-color="rgb(78.140259%, 28.501892%, 56.758118%)" offset="0.164062"/><stop stop-opacity="1" stop-color="rgb(78.08075%, 28.343201%, 57.098389%)" offset="0.171875"/><stop stop-opacity="1" stop-color="rgb(78.02124%, 28.182983%, 57.43866%)" offset="0.179688"/><stop stop-opacity="1" stop-color="rgb(77.961731%, 28.022766%, 57.778931%)" offset="0.1875"/><stop stop-opacity="1" stop-color="rgb(77.902222%, 27.864075%, 58.119202%)" offset="0.195313"/><stop stop-opacity="1" stop-color="rgb(77.842712%, 27.703857%, 58.459473%)" offset="0.203125"/><stop stop-opacity="1" stop-color="rgb(77.783203%, 27.54364%, 58.799744%)" offset="0.210937"/><stop stop-opacity="1" stop-color="rgb(77.72522%, 27.383423%, 59.140015%)" offset="0.21875"/><stop stop-opacity="1" stop-color="rgb(77.66571%, 27.224731%, 59.480286%)" offset="0.226563"/><stop stop-opacity="1" stop-color="rgb(77.606201%, 27.064514%, 59.820557%)" offset="0.234375"/><stop stop-opacity="1" stop-color="rgb(77.546692%, 26.904297%, 60.160828%)" offset="0.242188"/><stop stop-opacity="1" stop-color="rgb(77.487183%, 26.745605%, 60.501099%)" offset="0.25"/><stop stop-opacity="1" stop-color="rgb(77.427673%, 26.585388%, 60.84137%)" offset="0.257812"/><stop stop-opacity="1" stop-color="rgb(77.368164%, 26.425171%, 61.181641%)" offset="0.265625"/><stop stop-opacity="1" stop-color="rgb(77.308655%, 26.266479%, 61.521912%)" offset="0.273438"/><stop stop-opacity="1" stop-color="rgb(77.250671%, 26.106262%, 61.860657%)" offset="0.28125"/><stop stop-opacity="1" stop-color="rgb(77.191162%, 25.946045%, 62.200928%)" offset="0.289063"/><stop stop-opacity="1" stop-color="rgb(77.131653%, 25.787354%, 62.541199%)" offset="0.296875"/><stop stop-opacity="1" stop-color="rgb(77.072144%, 25.627136%, 62.88147%)" offset="0.304687"/><stop stop-opacity="1" stop-color="rgb(77.012634%, 25.466919%, 63.221741%)" offset="0.3125"/><stop stop-opacity="1" stop-color="rgb(76.953125%, 25.308228%, 63.562012%)" offset="0.320312"/><stop stop-opacity="1" stop-color="rgb(76.893616%, 25.14801%, 63.902283%)" offset="0.328125"/><stop stop-opacity="1" stop-color="rgb(76.834106%, 24.987793%, 64.242554%)" offset="0.335938"/><stop stop-opacity="1" stop-color="rgb(76.774597%, 24.827576%, 64.582825%)" offset="0.34375"/><stop stop-opacity="1" stop-color="rgb(76.716614%, 24.668884%, 64.923096%)" offset="0.351562"/><stop stop-opacity="1" stop-color="rgb(76.657104%, 24.508667%, 65.263367%)" offset="0.359375"/><stop stop-opacity="1" stop-color="rgb(76.597595%, 24.34845%, 65.603638%)" offset="0.367187"/><stop stop-opacity="1" stop-color="rgb(76.538086%, 24.189758%, 65.943909%)" offset="0.375"/><stop stop-opacity="1" stop-color="rgb(76.478577%, 24.029541%, 66.28418%)" offset="0.382813"/><stop stop-opacity="1" stop-color="rgb(76.419067%, 23.869324%, 66.624451%)" offset="0.390625"/><stop stop-opacity="1" stop-color="rgb(76.359558%, 23.710632%, 66.964722%)" offset="0.398438"/><stop stop-opacity="1" stop-color="rgb(76.300049%, 23.550415%, 67.304993%)" offset="0.40625"/><stop stop-opacity="1" stop-color="rgb(76.24054%, 23.390198%, 67.645264%)" offset="0.414062"/><stop stop-opacity="1" stop-color="rgb(76.182556%, 23.231506%, 67.985535%)" offset="0.421875"/><stop stop-opacity="1" stop-color="rgb(76.123047%, 23.071289%, 68.325806%)" offset="0.429688"/><stop stop-opacity="1" stop-color="rgb(76.063538%, 22.911072%, 68.666077%)" offset="0.4375"/><stop stop-opacity="1" stop-color="rgb(76.004028%, 22.75238%, 69.004822%)" offset="0.445313"/><stop stop-opacity="1" stop-color="rgb(75.944519%, 22.592163%, 69.345093%)" offset="0.453125"/><stop stop-opacity="1" stop-color="rgb(75.88501%, 22.431946%, 69.685364%)" offset="0.460937"/><stop stop-opacity="1" stop-color="rgb(75.8255%, 22.271729%, 70.025635%)" offset="0.46875"/><stop stop-opacity="1" stop-color="rgb(75.765991%, 22.113037%, 70.365906%)" offset="0.476562"/><stop stop-opacity="1" stop-color="rgb(75.708008%, 21.95282%, 70.706177%)" offset="0.484375"/><stop stop-opacity="1" stop-color="rgb(75.648499%, 21.792603%, 71.046448%)" offset="0.492188"/><stop stop-opacity="1" stop-color="rgb(75.588989%, 21.633911%, 71.386719%)" offset="0.496816"/><stop stop-opacity="1" stop-color="rgb(75.559998%, 21.554565%, 71.557617%)" offset="0.5"/><stop stop-opacity="1" stop-color="rgb(75.52948%, 21.473694%, 71.72699%)" offset="0.503184"/><stop stop-opacity="1" stop-color="rgb(75.500488%, 21.394348%, 71.897888%)" offset="0.507812"/><stop stop-opacity="1" stop-color="rgb(75.469971%, 21.313477%, 72.067261%)" offset="0.515625"/><stop stop-opacity="1" stop-color="rgb(75.410461%, 21.154785%, 72.407532%)" offset="0.523437"/><stop stop-opacity="1" stop-color="rgb(75.350952%, 20.994568%, 72.747803%)" offset="0.53125"/><stop stop-opacity="1" stop-color="rgb(75.291443%, 20.834351%, 73.088074%)" offset="0.539063"/><stop stop-opacity="1" stop-color="rgb(75.231934%, 20.675659%, 73.428345%)" offset="0.546875"/><stop stop-opacity="1" stop-color="rgb(75.17395%, 20.515442%, 73.768616%)" offset="0.554687"/><stop stop-opacity="1" stop-color="rgb(75.114441%, 20.355225%, 74.108887%)" offset="0.5625"/><stop stop-opacity="1" stop-color="rgb(75.054932%, 20.195007%, 74.449158%)" offset="0.570312"/><stop stop-opacity="1" stop-color="rgb(74.995422%, 20.036316%, 74.789429%)" offset="0.578125"/><stop stop-opacity="1" stop-color="rgb(74.935913%, 19.876099%, 75.1297%)" offset="0.585938"/><stop stop-opacity="1" stop-color="rgb(74.876404%, 19.715881%, 75.469971%)" offset="0.59375"/><stop stop-opacity="1" stop-color="rgb(74.816895%, 19.55719%, 75.810242%)" offset="0.601562"/><stop stop-opacity="1" stop-color="rgb(74.757385%, 19.396973%, 76.148987%)" offset="0.609375"/><stop stop-opacity="1" stop-color="rgb(74.697876%, 19.236755%, 76.489258%)" offset="0.617187"/><stop stop-opacity="1" stop-color="rgb(74.639893%, 19.078064%, 76.829529%)" offset="0.625"/><stop stop-opacity="1" stop-color="rgb(74.580383%, 18.917847%, 77.1698%)" offset="0.632812"/><stop stop-opacity="1" stop-color="rgb(74.520874%, 18.757629%, 77.510071%)" offset="0.640625"/><stop stop-opacity="1" stop-color="rgb(74.461365%, 18.598938%, 77.850342%)" offset="0.648438"/><stop stop-opacity="1" stop-color="rgb(74.401855%, 18.438721%, 78.190613%)" offset="0.65625"/><stop stop-opacity="1" stop-color="rgb(74.342346%, 18.278503%, 78.530884%)" offset="0.664062"/><stop stop-opacity="1" stop-color="rgb(74.282837%, 18.119812%, 78.871155%)" offset="0.671875"/><stop stop-opacity="1" stop-color="rgb(74.223328%, 17.959595%, 79.211426%)" offset="0.679687"/><stop stop-opacity="1" stop-color="rgb(74.165344%, 17.799377%, 79.551697%)" offset="0.6875"/><stop stop-opacity="1" stop-color="rgb(74.105835%, 17.63916%, 79.891968%)" offset="0.695313"/><stop stop-opacity="1" stop-color="rgb(74.046326%, 17.480469%, 80.232239%)" offset="0.703125"/><stop stop-opacity="1" stop-color="rgb(73.986816%, 17.320251%, 80.57251%)" offset="0.710938"/><stop stop-opacity="1" stop-color="rgb(73.927307%, 17.160034%, 80.912781%)" offset="0.71875"/><stop stop-opacity="1" stop-color="rgb(73.867798%, 17.001343%, 81.253052%)" offset="0.726562"/><stop stop-opacity="1" stop-color="rgb(73.808289%, 16.841125%, 81.593323%)" offset="0.734375"/><stop stop-opacity="1" stop-color="rgb(73.748779%, 16.680908%, 81.933594%)" offset="0.742188"/><stop stop-opacity="1" stop-color="rgb(73.68927%, 16.522217%, 82.273865%)" offset="0.75"/><stop stop-opacity="1" stop-color="rgb(73.631287%, 16.362%, 82.614136%)" offset="0.757813"/><stop stop-opacity="1" stop-color="rgb(73.571777%, 16.201782%, 82.954407%)" offset="0.765625"/><stop stop-opacity="1" stop-color="rgb(73.512268%, 16.043091%, 83.294678%)" offset="0.773438"/><stop stop-opacity="1" stop-color="rgb(73.452759%, 15.882874%, 83.633423%)" offset="0.78125"/><stop stop-opacity="1" stop-color="rgb(73.39325%, 15.722656%, 83.973694%)" offset="0.789062"/><stop stop-opacity="1" stop-color="rgb(73.33374%, 15.563965%, 84.313965%)" offset="0.796875"/><stop stop-opacity="1" stop-color="rgb(73.274231%, 15.403748%, 84.654236%)" offset="0.804688"/><stop stop-opacity="1" stop-color="rgb(73.214722%, 15.24353%, 84.994507%)" offset="0.8125"/><stop stop-opacity="1" stop-color="rgb(73.155212%, 15.083313%, 85.334778%)" offset="0.820313"/><stop stop-opacity="1" stop-color="rgb(73.097229%, 14.924622%, 85.675049%)" offset="0.828125"/><stop stop-opacity="1" stop-color="rgb(73.03772%, 14.764404%, 86.01532%)" offset="0.835937"/><stop stop-opacity="1" stop-color="rgb(72.97821%, 14.604187%, 86.355591%)" offset="0.84375"/><stop stop-opacity="1" stop-color="rgb(72.918701%, 14.445496%, 86.695862%)" offset="0.851563"/><stop stop-opacity="1" stop-color="rgb(72.859192%, 14.285278%, 87.036133%)" offset="0.859375"/><stop stop-opacity="1" stop-color="rgb(72.799683%, 14.125061%, 87.376404%)" offset="0.867188"/><stop stop-opacity="1" stop-color="rgb(72.740173%, 13.96637%, 87.716675%)" offset="0.875"/><stop stop-opacity="1" stop-color="rgb(72.680664%, 13.806152%, 88.056946%)" offset="0.882812"/><stop stop-opacity="1" stop-color="rgb(72.622681%, 13.645935%, 88.397217%)" offset="0.890625"/><stop stop-opacity="1" stop-color="rgb(72.563171%, 13.487244%, 88.737488%)" offset="0.898438"/><stop stop-opacity="1" stop-color="rgb(72.503662%, 13.327026%, 89.077759%)" offset="0.90625"/><stop stop-opacity="1" stop-color="rgb(72.444153%, 13.166809%, 89.41803%)" offset="0.914063"/><stop stop-opacity="1" stop-color="rgb(72.384644%, 13.008118%, 89.758301%)" offset="0.921875"/><stop stop-opacity="1" stop-color="rgb(72.325134%, 12.8479%, 90.098572%)" offset="0.929687"/><stop stop-opacity="1" stop-color="rgb(72.265625%, 12.687683%, 90.438843%)" offset="0.9375"/><stop stop-opacity="1" stop-color="rgb(72.206116%, 12.527466%, 90.777588%)" offset="0.945312"/><stop stop-opacity="1" stop-color="rgb(72.146606%, 12.368774%, 91.117859%)" offset="0.953125"/><stop stop-opacity="1" stop-color="rgb(72.088623%, 12.208557%, 91.45813%)" offset="0.960938"/><stop stop-opacity="1" stop-color="rgb(72.029114%, 12.04834%, 91.798401%)" offset="0.96875"/><stop stop-opacity="1" stop-color="rgb(71.969604%, 11.889648%, 92.138672%)" offset="0.976562"/><stop stop-opacity="1" stop-color="rgb(71.910095%, 11.729431%, 92.478943%)" offset="0.984375"/><stop stop-opacity="1" stop-color="rgb(71.850586%, 11.569214%, 92.819214%)" offset="0.992187"/><stop stop-opacity="1" stop-color="rgb(71.791077%, 11.410522%, 93.159485%)" offset="1"/></linearGradient></defs><g clip-path="url(#4bc8dd6473)"><g clip-path="url(#1cd35f4ae1)"><path fill="url(#1e0ab2131f)" d="M 36 14.738281 L 36 17.019531 L 44.273438 17.019531 L 44.273438 14.738281 Z M 36 14.738281 " fill-rule="nonzero"/></g></g><g fill="#ffffff" fill-opacity="1"><g transform="translate(0.725806, 17.274868)"><g><path d="M 0.546875 0 L 0.546875 -5.59375 L 1.5625 -5.59375 L 1.5625 -3.328125 L 3.640625 -5.59375 L 4.890625 -5.59375 L 2.828125 -3.375 L 4.953125 0 L 3.703125 0 L 2.09375 -2.59375 L 1.5625 -2 L 1.5625 0 Z M 0.546875 0 "/></g></g></g><g fill="#ffffff" fill-opacity="1"><g transform="translate(5.834074, 17.274868)"><g><path d="M 2.421875 0.09375 C 2.035156 0.09375 1.6875 0.00390625 1.375 -0.171875 C 1.070312 -0.347656 0.832031 -0.585938 0.65625 -0.890625 C 0.476562 -1.203125 0.390625 -1.566406 0.390625 -1.984375 C 0.390625 -2.390625 0.476562 -2.75 0.65625 -3.0625 C 0.84375 -3.375 1.085938 -3.617188 1.390625 -3.796875 C 1.703125 -3.972656 2.046875 -4.0625 2.421875 -4.0625 C 2.804688 -4.0625 3.148438 -3.972656 3.453125 -3.796875 C 3.753906 -3.617188 3.992188 -3.375 4.171875 -3.0625 C 4.359375 -2.75 4.453125 -2.390625 4.453125 -1.984375 C 4.453125 -1.566406 4.359375 -1.203125 4.171875 -0.890625 C 3.992188 -0.585938 3.75 -0.347656 3.4375 -0.171875 C 3.132812 0.00390625 2.796875 0.09375 2.421875 0.09375 Z M 2.421875 -0.796875 C 2.679688 -0.796875 2.910156 -0.894531 3.109375 -1.09375 C 3.304688 -1.289062 3.40625 -1.585938 3.40625 -1.984375 C 3.40625 -2.378906 3.304688 -2.675781 3.109375 -2.875 C 2.910156 -3.070312 2.679688 -3.171875 2.421875 -3.171875 C 2.148438 -3.171875 1.914062 -3.070312 1.71875 -2.875 C 1.53125 -2.675781 1.4375 -2.378906 1.4375 -1.984375 C 1.4375 -1.585938 1.53125 -1.289062 1.71875 -1.09375 C 1.914062 -0.894531 2.148438 -0.796875 2.421875 -0.796875 Z M 2.421875 -0.796875 "/></g></g></g><g fill="#ffffff" fill-opacity="1"><g transform="translate(10.670966, 17.274868)"><g><path d="M 0.515625 0 L 0.515625 -3.953125 L 1.421875 -3.953125 L 1.515625 -3.421875 C 1.640625 -3.617188 1.804688 -3.773438 2.015625 -3.890625 C 2.222656 -4.003906 2.46875 -4.0625 2.75 -4.0625 C 3.363281 -4.0625 3.796875 -3.820312 4.046875 -3.34375 C 4.191406 -3.5625 4.382812 -3.734375 4.625 -3.859375 C 4.863281 -3.992188 5.128906 -4.0625 5.421875 -4.0625 C 5.941406 -4.0625 6.335938 -3.90625 6.609375 -3.59375 C 6.890625 -3.28125 7.03125 -2.828125 7.03125 -2.234375 L 7.03125 0 L 6 0 L 6 -2.140625 C 6 -2.484375 5.929688 -2.742188 5.796875 -2.921875 C 5.671875 -3.097656 5.472656 -3.1875 5.203125 -3.1875 C 4.929688 -3.1875 4.707031 -3.085938 4.53125 -2.890625 C 4.363281 -2.691406 4.28125 -2.410156 4.28125 -2.046875 L 4.28125 0 L 3.265625 0 L 3.265625 -2.140625 C 3.265625 -2.484375 3.195312 -2.742188 3.0625 -2.921875 C 2.925781 -3.097656 2.722656 -3.1875 2.453125 -3.1875 C 2.179688 -3.1875 1.960938 -3.085938 1.796875 -2.890625 C 1.628906 -2.691406 1.546875 -2.410156 1.546875 -2.046875 L 1.546875 0 Z M 0.515625 0 "/></g></g></g><g fill="#ffffff" fill-opacity="1"><g transform="translate(18.14979, 17.274868)"><g><path d="M 2.4375 0.09375 C 2.039062 0.09375 1.6875 0.0078125 1.375 -0.15625 C 1.070312 -0.332031 0.832031 -0.570312 0.65625 -0.875 C 0.476562 -1.1875 0.390625 -1.546875 0.390625 -1.953125 C 0.390625 -2.359375 0.472656 -2.71875 0.640625 -3.03125 C 0.816406 -3.351562 1.054688 -3.601562 1.359375 -3.78125 C 1.671875 -3.96875 2.035156 -4.0625 2.453125 -4.0625 C 2.835938 -4.0625 3.175781 -3.972656 3.46875 -3.796875 C 3.769531 -3.628906 4.003906 -3.394531 4.171875 -3.09375 C 4.347656 -2.800781 4.4375 -2.472656 4.4375 -2.109375 C 4.4375 -2.054688 4.429688 -2 4.421875 -1.9375 C 4.421875 -1.875 4.421875 -1.804688 4.421875 -1.734375 L 1.40625 -1.734375 C 1.425781 -1.421875 1.53125 -1.175781 1.71875 -1 C 1.914062 -0.832031 2.15625 -0.75 2.4375 -0.75 C 2.644531 -0.75 2.816406 -0.789062 2.953125 -0.875 C 3.097656 -0.96875 3.207031 -1.09375 3.28125 -1.25 L 4.3125 -1.25 C 4.238281 -1 4.113281 -0.769531 3.9375 -0.5625 C 3.769531 -0.351562 3.554688 -0.191406 3.296875 -0.078125 C 3.046875 0.0351562 2.757812 0.09375 2.4375 0.09375 Z M 2.453125 -3.21875 C 2.203125 -3.21875 1.976562 -3.144531 1.78125 -3 C 1.59375 -2.863281 1.472656 -2.65625 1.421875 -2.375 L 3.390625 -2.375 C 3.378906 -2.632812 3.285156 -2.835938 3.109375 -2.984375 C 2.929688 -3.140625 2.710938 -3.21875 2.453125 -3.21875 Z M 2.453125 -3.21875 "/></g></g></g><g fill="#ffffff" fill-opacity="1"><g transform="translate(22.922828, 17.274868)"><g><path d="M 2.15625 0.09375 C 1.800781 0.09375 1.488281 0.0351562 1.21875 -0.078125 C 0.957031 -0.191406 0.742188 -0.347656 0.578125 -0.546875 C 0.421875 -0.753906 0.328125 -0.988281 0.296875 -1.25 L 1.328125 -1.25 C 1.359375 -1.09375 1.441406 -0.957031 1.578125 -0.84375 C 1.722656 -0.738281 1.910156 -0.6875 2.140625 -0.6875 C 2.359375 -0.6875 2.519531 -0.734375 2.625 -0.828125 C 2.726562 -0.921875 2.78125 -1.023438 2.78125 -1.140625 C 2.78125 -1.304688 2.707031 -1.421875 2.5625 -1.484375 C 2.414062 -1.546875 2.207031 -1.609375 1.9375 -1.671875 C 1.769531 -1.703125 1.597656 -1.742188 1.421875 -1.796875 C 1.242188 -1.859375 1.082031 -1.925781 0.9375 -2 C 0.789062 -2.082031 0.671875 -2.1875 0.578125 -2.3125 C 0.492188 -2.445312 0.453125 -2.613281 0.453125 -2.8125 C 0.453125 -3.164062 0.585938 -3.460938 0.859375 -3.703125 C 1.140625 -3.941406 1.535156 -4.0625 2.046875 -4.0625 C 2.515625 -4.0625 2.882812 -3.953125 3.15625 -3.734375 C 3.4375 -3.515625 3.609375 -3.210938 3.671875 -2.828125 L 2.703125 -2.828125 C 2.640625 -3.117188 2.414062 -3.265625 2.03125 -3.265625 C 1.84375 -3.265625 1.695312 -3.226562 1.59375 -3.15625 C 1.488281 -3.082031 1.4375 -2.988281 1.4375 -2.875 C 1.4375 -2.757812 1.515625 -2.664062 1.671875 -2.59375 C 1.828125 -2.519531 2.03125 -2.457031 2.28125 -2.40625 C 2.5625 -2.34375 2.816406 -2.269531 3.046875 -2.1875 C 3.273438 -2.113281 3.457031 -2 3.59375 -1.84375 C 3.738281 -1.695312 3.8125 -1.484375 3.8125 -1.203125 C 3.8125 -0.953125 3.742188 -0.726562 3.609375 -0.53125 C 3.484375 -0.332031 3.296875 -0.175781 3.046875 -0.0625 C 2.796875 0.0390625 2.5 0.09375 2.15625 0.09375 Z M 2.15625 0.09375 "/></g></g></g><g fill="#ffffff" fill-opacity="1"><g transform="translate(27.113205, 17.274868)"><g><path d="M 0.515625 0 L 0.515625 -5.75 L 1.546875 -5.75 L 1.546875 -3.359375 C 1.671875 -3.578125 1.847656 -3.75 2.078125 -3.875 C 2.304688 -4 2.566406 -4.0625 2.859375 -4.0625 C 3.347656 -4.0625 3.726562 -3.90625 4 -3.59375 C 4.269531 -3.28125 4.40625 -2.828125 4.40625 -2.234375 L 4.40625 0 L 3.390625 0 L 3.390625 -2.140625 C 3.390625 -2.484375 3.320312 -2.742188 3.1875 -2.921875 C 3.050781 -3.097656 2.832031 -3.1875 2.53125 -3.1875 C 2.25 -3.1875 2.015625 -3.085938 1.828125 -2.890625 C 1.640625 -2.691406 1.546875 -2.410156 1.546875 -2.046875 L 1.546875 0 Z M 0.515625 0 "/></g></g></g><g fill="#ffffff" fill-opacity="1"><g transform="translate(31.966061, 17.274868)"><g><path d="M 1.890625 0.09375 C 1.546875 0.09375 1.265625 0.0390625 1.046875 -0.0625 C 0.828125 -0.175781 0.664062 -0.320312 0.5625 -0.5 C 0.457031 -0.6875 0.40625 -0.890625 0.40625 -1.109375 C 0.40625 -1.472656 0.546875 -1.769531 0.828125 -2 C 1.117188 -2.226562 1.550781 -2.34375 2.125 -2.34375 L 3.125 -2.34375 L 3.125 -2.4375 C 3.125 -2.707031 3.046875 -2.90625 2.890625 -3.03125 C 2.742188 -3.15625 2.554688 -3.21875 2.328125 -3.21875 C 2.117188 -3.21875 1.9375 -3.171875 1.78125 -3.078125 C 1.625 -2.984375 1.53125 -2.835938 1.5 -2.640625 L 0.5 -2.640625 C 0.519531 -2.929688 0.613281 -3.179688 0.78125 -3.390625 C 0.945312 -3.609375 1.164062 -3.773438 1.4375 -3.890625 C 1.707031 -4.003906 2.003906 -4.0625 2.328125 -4.0625 C 2.890625 -4.0625 3.332031 -3.914062 3.65625 -3.625 C 3.988281 -3.34375 4.15625 -2.945312 4.15625 -2.4375 L 4.15625 0 L 3.28125 0 L 3.1875 -0.640625 C 3.070312 -0.421875 2.90625 -0.242188 2.6875 -0.109375 C 2.476562 0.0234375 2.210938 0.09375 1.890625 0.09375 Z M 2.109375 -0.703125 C 2.410156 -0.703125 2.640625 -0.796875 2.796875 -0.984375 C 2.960938 -1.179688 3.066406 -1.421875 3.109375 -1.703125 L 2.234375 -1.703125 C 1.960938 -1.703125 1.769531 -1.648438 1.65625 -1.546875 C 1.539062 -1.453125 1.484375 -1.332031 1.484375 -1.1875 C 1.484375 -1.03125 1.539062 -0.910156 1.65625 -0.828125 C 1.769531 -0.742188 1.921875 -0.703125 2.109375 -0.703125 Z M 2.109375 -0.703125 "/></g></g></g><g fill="#ffffff" fill-opacity="1"><g transform="translate(36.571482, 17.274868)"><g><path d="M 0.546875 0 L 0.546875 -5.59375 L 1.5625 -5.59375 L 4.1875 -1.65625 L 4.1875 -5.59375 L 5.21875 -5.59375 L 5.21875 0 L 4.1875 0 L 1.5625 -3.921875 L 1.5625 0 Z M 0.546875 0 "/></g></g></g></svg>